<svg width="114" height="69" viewBox="0 0 114 69" fill="none" xmlns="http://www.w3.org/2000/svg">
<path d="M26 29.0003H13" stroke="#012001" stroke-width="4" stroke-linecap="round"/>
<path d="M102 25.0003H89" stroke="#012001" stroke-width="4" stroke-linecap="round"/>
<path d="M89 25.0003L110 46.0003" stroke="#012001" stroke-width="4" stroke-linecap="round"/>
<path d="M95 40.0003V51.0003" stroke="#012001" stroke-width="4" stroke-linecap="round"/>
<path d="M107 45.0003L98 58.0003" stroke="#012001" stroke-width="4" stroke-linecap="round"/>
<path d="M97 58.0003H86" stroke="#012001" stroke-width="4" stroke-linecap="round"/>
<path d="M102 54.0003L106 58.0003" stroke="#012001" stroke-width="4" stroke-linecap="round"/>
<path d="M59 16.0003L51 25.0003" stroke="#012001" stroke-width="4" stroke-linecap="round"/>
<path d="M51 25.0003L56 29.0003" stroke="#012001" stroke-width="4" stroke-linecap="round"/>
<path d="M51 25.0003V36.0003" stroke="#012001" stroke-width="4" stroke-linecap="round"/>
<path d="M59 2.00027L59 16.0003" stroke="#012001" stroke-width="4" stroke-linecap="round"/>
<path d="M46 2.00027L47 15.0003" stroke="#012001" stroke-width="4" stroke-linecap="round"/>
<path d="M73 2.00027L71 15.0003" stroke="#012001" stroke-width="4" stroke-linecap="round"/>
<path d="M47 15.0003L26 29.0003" stroke="#012001" stroke-width="4" stroke-linecap="round"/>
<path d="M89 25.0003L71 15.0003" stroke="#012001" stroke-width="4" stroke-linecap="round"/>
<path d="M67 22.0003L71 15.0003" stroke="#012001" stroke-width="4" stroke-linecap="round"/>
<path d="M13 29.0003L5 36.0003" stroke="#012001" stroke-width="4" stroke-linecap="round"/>
<path d="M77 20.0003L72 29.0003" stroke="#012001" stroke-width="4" stroke-linecap="round"/>
<path d="M64 41.0003V64.0003" stroke="#012001" stroke-width="4" stroke-linecap="round"/>
<path d="M78 32.0003V44.0003" stroke="#012001" stroke-width="4" stroke-linecap="round"/>
<path d="M78 43.0003V65.0003" stroke="#012001" stroke-width="4" stroke-linecap="round"/>
<path d="M95 51.0003H86" stroke="#012001" stroke-width="4" stroke-linecap="round"/>
<path d="M77 51.0003H73" stroke="#012001" stroke-width="4" stroke-linecap="round"/>
<path d="M87 43.0003H78" stroke="#012001" stroke-width="4" stroke-linecap="round"/>
<path d="M72 29.0003L63 34.0003" stroke="#012001" stroke-width="4" stroke-linecap="round"/>
<path d="M72 29.0003L78 32.0003" stroke="#012001" stroke-width="4" stroke-linecap="round"/>
<path d="M90 25.0003L84 30.0003" stroke="#012001" stroke-width="4" stroke-linecap="round"/>
<path d="M26 29.0003L18 37.0003" stroke="#012001" stroke-width="4" stroke-linecap="round"/>
<path d="M18 37.0003L10 44.0003" stroke="#012001" stroke-width="4" stroke-linecap="round"/>
<path d="M10 44.0003L11 54.0003" stroke="#012001" stroke-width="4" stroke-linecap="round"/>
<path d="M10 44.0003L4 49.0003" stroke="#012001" stroke-width="4" stroke-linecap="round"/>
<path d="M18 39.0003V59.0003" stroke="#012001" stroke-width="4" stroke-linecap="round"/>
<path d="M18 60.0003L14 65.0003" stroke="#012001" stroke-width="4" stroke-linecap="round"/>
<path d="M26 60.0003L27 65.0003" stroke="#012001" stroke-width="4" stroke-linecap="round"/>
<path d="M18 60.0003L26 60.0003" stroke="#012001" stroke-width="4" stroke-linecap="round"/>
<path d="M26 59.0003L26 54.0003" stroke="#012001" stroke-width="4" stroke-linecap="round"/>
<path d="M33 59.0003L47 59.0003" stroke="#012001" stroke-width="4" stroke-linecap="round"/>
<path d="M32 47.0003L39 59.0003" stroke="#012001" stroke-width="4" stroke-linecap="round"/>
<path d="M33 47.0003L43 39.0003" stroke="#012001" stroke-width="4" stroke-linecap="round"/>
<path d="M26 46.0003H34" stroke="#012001" stroke-width="4" stroke-linecap="round"/>
<path d="M18 37.0003H31" stroke="#012001" stroke-width="4" stroke-linecap="round"/>
<path d="M43 38.0003V19.0003" stroke="#012001" stroke-width="4" stroke-linecap="round"/>
<circle cx="30" cy="37.0003" r="3" fill="#012001"/>
<circle cx="26" cy="54.0003" r="3" fill="#012001"/>
<circle cx="14" cy="65.0003" r="3" fill="#012001"/>
<circle cx="27" cy="66.0003" r="3" fill="#012001"/>
<path d="M47 59.0003L48 64.0003" stroke="#012001" stroke-width="4" stroke-linecap="round"/>
<circle cx="48" cy="65.0003" r="3" fill="#012001"/>
<circle cx="26" cy="46.0003" r="3" fill="#012001"/>
<circle cx="43" cy="50.0003" r="3" fill="#012001"/>
<circle cx="33" cy="59.0003" r="3" fill="#012001"/>
<circle cx="11" cy="55.0003" r="3" fill="#012001"/>
<circle cx="3" cy="50.0003" r="3" fill="#012001"/>
<circle cx="4" cy="37.0003" r="3" fill="#012001"/>
<path d="M43 18.0003H30" stroke="#012001" stroke-width="4" stroke-linecap="round"/>
<path d="M30 18.0003L18 21.0003" stroke="#012001" stroke-width="4" stroke-linecap="round"/>
<circle cx="18" cy="21.0003" r="3" fill="#012001"/>
<path d="M102 25.0003L110 32.0003" stroke="#012001" stroke-width="4" stroke-linecap="round"/>
<circle cx="3" cy="3" r="3" transform="matrix(-1 0 0 1 114 30.0003)" fill="#012001"/>
<path d="M50 56.0003L47 59.0003" stroke="#012001" stroke-width="4" stroke-linecap="round"/>
<path d="M49 45.0003L43 50.0003" stroke="#012001" stroke-width="4" stroke-linecap="round"/>
<path d="M49 45.0003L43 39.0003" stroke="#012001" stroke-width="4" stroke-linecap="round"/>
<circle cx="53" cy="50.0003" r="3" fill="#012001"/>
<path d="M64 41.0003L53 50.0003" stroke="#012001" stroke-width="4" stroke-linecap="round"/>
<circle cx="56" cy="61.0003" r="3" fill="#012001"/>
<path d="M64 55.0003L56 61.0003" stroke="#012001" stroke-width="4" stroke-linecap="round"/>
<path d="M61 44.0003L51 36.0003" stroke="#012001" stroke-width="4" stroke-linecap="round"/>
<circle cx="107" cy="59.0003" r="3" fill="#012001"/>
<circle cx="88" cy="43.0003" r="3" fill="#012001"/>
<circle cx="63" cy="34.0003" r="3" fill="#012001"/>
<circle cx="71" cy="39.0003" r="3" fill="#012001"/>
<circle cx="66" cy="23.0003" r="3" fill="#012001"/>
<circle cx="64" cy="65.0003" r="3" fill="#012001"/>
<path d="M71 41.0003V63.0003" stroke="#012001" stroke-width="4" stroke-linecap="round"/>
<circle cx="3" cy="3" r="3" transform="matrix(-1 0 0 1 74 62.0003)" fill="#012001"/>
<path d="M87 65.0003H78" stroke="#012001" stroke-width="4" stroke-linecap="round"/>
<circle cx="88" cy="65.0003" r="3" fill="#012001"/>
<circle cx="111" cy="47.0003" r="3" fill="#012001"/>
<path d="M84 30.0003L95 40.0003" stroke="#012001" stroke-width="4" stroke-linecap="round"/>
</svg>
